<svg xmlns="http://www.w3.org/2000/svg" viewBox="0 0 64 80" x="0px" y="0px"><g><path d="M61,12H56a4,4,0,0,0-8,0H26a4,4,0,0,0-8,0H3a1,1,0,0,0-1,1V51a1,1,0,0,0,1,1H6v4.586L2.293,60.293A1,1,0,0,0,3,62H17a1,1,0,0,0,.707-1.707L14,56.586V52H50v4.586l-3.707,3.707A1,1,0,0,0,47,62H61a1,1,0,0,0,.707-1.707L58,56.586V52h3a1,1,0,0,0,1-1V13A1,1,0,0,0,61,12Zm-9-2a2,2,0,0,1,2,2H50A2,2,0,0,1,52,10ZM22,10a2,2,0,0,1,2,2H20A2,2,0,0,1,22,10ZM14.586,60H5.414l2-2h5.172ZM8,56V48h4v8Zm50.586,4H49.414l2-2h5.172ZM52,56V48h4v8Zm8-6H58V47a1,1,0,0,0-1-1H51a1,1,0,0,0-1,1v3H14V47a1,1,0,0,0-1-1H7a1,1,0,0,0-1,1v3H4V14H60Z"/><path d="M12,16a4,4,0,1,0,4,4A4,4,0,0,0,12,16Zm0,6a2,2,0,1,1,2-2A2,2,0,0,1,12,22Z"/><path d="M12,26a4,4,0,1,0,4,4A4,4,0,0,0,12,26Zm0,6a2,2,0,1,1,2-2A2,2,0,0,1,12,32Z"/><path d="M12,36a4,4,0,1,0,4,4A4,4,0,0,0,12,36Zm0,6a2,2,0,1,1,2-2A2,2,0,0,1,12,42Z"/><path d="M22,16a4,4,0,1,0,4,4A4,4,0,0,0,22,16Zm0,6a2,2,0,1,1,2-2A2,2,0,0,1,22,22Z"/><path d="M22,26a4,4,0,1,0,4,4A4,4,0,0,0,22,26Zm0,6a2,2,0,1,1,2-2A2,2,0,0,1,22,32Z"/><path d="M22,36a4,4,0,1,0,4,4A4,4,0,0,0,22,36Zm0,6a2,2,0,1,1,2-2A2,2,0,0,1,22,42Z"/><path d="M32,24a4,4,0,1,0-4-4A4,4,0,0,0,32,24Zm0-6a2,2,0,1,1-2,2A2,2,0,0,1,32,18Z"/><path d="M32,34a4,4,0,1,0-4-4A4,4,0,0,0,32,34Zm0-6a2,2,0,1,1-2,2A2,2,0,0,1,32,28Z"/><path d="M32,36a4,4,0,1,0,4,4A4,4,0,0,0,32,36Zm0,6a2,2,0,1,1,2-2A2,2,0,0,1,32,42Z"/><path d="M42,24a4,4,0,1,0-4-4A4,4,0,0,0,42,24Zm0-6a2,2,0,1,1-2,2A2,2,0,0,1,42,18Z"/><path d="M42,34a4,4,0,1,0-4-4A4,4,0,0,0,42,34Zm0-6a2,2,0,1,1-2,2A2,2,0,0,1,42,28Z"/><path d="M46,40a4,4,0,1,0-4,4A4,4,0,0,0,46,40Zm-4,2a2,2,0,1,1,2-2A2,2,0,0,1,42,42Z"/><path d="M48,20a4,4,0,1,0,4-4A4,4,0,0,0,48,20Zm6,0a2,2,0,1,1-2-2A2,2,0,0,1,54,20Z"/><path d="M52,34a4,4,0,1,0-4-4A4,4,0,0,0,52,34Zm0-6a2,2,0,1,1-2,2A2,2,0,0,1,52,28Z"/><path d="M52,36a4,4,0,1,0,4,4A4,4,0,0,0,52,36Zm0,6a2,2,0,1,1,2-2A2,2,0,0,1,52,42Z"/><rect x="56" y="34" width="2" height="2"/><rect x="6" y="24" width="2" height="2"/><rect x="36" y="46" width="2" height="2"/><rect x="44" y="46" width="4" height="2"/><path d="M49,6a4,4,0,1,0-4,4A4,4,0,0,0,49,6ZM43,6a2,2,0,1,1,2,2A2,2,0,0,1,43,6Z"/></g><text x="0" y="79" fill="#000000" font-size="5px" font-weight="bold" font-family="'Helvetica Neue', Helvetica, Arial-Unicode, Arial, Sans-serif">Created by Smalllike</text><text x="0" y="84" fill="#000000" font-size="5px" font-weight="bold" font-family="'Helvetica Neue', Helvetica, Arial-Unicode, Arial, Sans-serif">from the Noun Project</text></svg>